<svg id="Layer_1" data-name="Layer 1" xmlns="http://www.w3.org/2000/svg" viewBox="0 0 193.4 40"><path d="M0,0H40V40H0Z" style="fill:none"/><path d="M23.33,10l-7,9.38,2.08,2.79,4.95-6.62,8.34,11.12H17.57l-6.69-9L1.67,30H38.33Zm-15,16.67,2.54-3.39,2.53,3.39Z" style="fill:#ff8a00"/><path d="M48.59,23.73a5.17,5.17,0,0,1-3.5-1.24,4.3,4.3,0,0,1-1.52-3.4,7.65,7.65,0,0,1,1.5-4.6,5,5,0,0,1,4.18-2.3,5.13,5.13,0,0,1,3.58,1.08,4.61,4.61,0,0,1,1.23,3.56,8,8,0,0,1-1.38,4.57A4.78,4.78,0,0,1,48.59,23.73Zm.66-10a3.63,3.63,0,0,0-3,1.79,6.2,6.2,0,0,0-1.15,3.61,2.86,2.86,0,0,0,1,2.3,3.74,3.74,0,0,0,2.48.84,3.41,3.41,0,0,0,2.94-1.8,6.47,6.47,0,0,0,1-3.6,3.21,3.21,0,0,0-.78-2.46A3.76,3.76,0,0,0,49.25,13.69Z" style="fill:#ff8a00"/><path d="M61.69,19c0,.35,0,.88,0,1.58v1.58c0,.11,0,.27,0,.49s0,.38,0,.49a.7.7,0,0,1-.21.52.73.73,0,0,1-.52.2c-.37,0-.61-.23-.72-.7a4.45,4.45,0,0,1-2.1.48,2.73,2.73,0,0,1-1.59-.43,1.87,1.87,0,0,1-.83-1.36,24.26,24.26,0,0,1-.29-3.46,14.52,14.52,0,0,1,.22-2.29.65.65,0,0,1,.7-.63.73.73,0,0,1,.53.2.66.66,0,0,1,.21.51A8.78,8.78,0,0,1,57,17.27a8.47,8.47,0,0,0-.1,1.13c0,.81,0,1.51.08,2.09a6.79,6.79,0,0,0,.24,1.4,2.07,2.07,0,0,0,.47.2,1.53,1.53,0,0,0,.47.07,7.48,7.48,0,0,0,2.07-.31V18.94a22.15,22.15,0,0,1,.14-2.75.66.66,0,0,1,.71-.67.7.7,0,0,1,.52.21.62.62,0,0,1,.2.51Z" style="fill:#ff8a00"/><path d="M69.21,17.87c0,.61-.28.92-.73.92s-.63-.24-.63-.73c0-.09,0-.26,0-.51l0-.62a3.87,3.87,0,0,0-1.85.66A3.49,3.49,0,0,0,64.87,19v4a.64.64,0,0,1-.72.74c-.43,0-.65-.24-.65-.74V17.89c0-.16,0-.4,0-.72s0-.57,0-.73c0-.49.21-.74.64-.74s.72.41.73,1.22A4.43,4.43,0,0,1,68,15.56a1,1,0,0,1,.88.45,2.45,2.45,0,0,1,.3,1.35C69.22,17.61,69.21,17.78,69.21,17.87Z" style="fill:#ff8a00"/><path d="M80.67,23a11.69,11.69,0,0,1-4.21.64.82.82,0,0,1-.6-.29.92.92,0,0,1-.28-.61V20.6c0-.7,0-1.7.13-3s.16-2.41.17-3c0-.45,0-1.12.08-2a.58.58,0,0,1,.24-.48,7.49,7.49,0,0,1,2.26-.31,4.09,4.09,0,0,1,2.48.88,3,3,0,0,1,1.37,2.49,3.48,3.48,0,0,1-1.47,3,5,5,0,0,1,1.65,1A1.79,1.79,0,0,1,83,20.41a2.3,2.3,0,0,1-1,1.71A4.65,4.65,0,0,1,80.67,23Zm-1.39-3.85L78.5,19l-.28,0h-.3a6.34,6.34,0,0,1-.84-.07c0,.62,0,1.16,0,1.65v1.51a9.43,9.43,0,0,0,3.13-.54,3.12,3.12,0,0,0,1-.61q.45-.39.45-.57c0-.23-.31-.49-.94-.78A7.3,7.3,0,0,0,79.28,19.14Zm-.82-5.87a9,9,0,0,0-1.12.05V14.6l-.15,2.84c.69.06,1.06.08,1.11.08a3.09,3.09,0,0,0,1.81-.69,2.12,2.12,0,0,0,.76-1.68,1.68,1.68,0,0,0-.77-1.29A2.68,2.68,0,0,0,78.46,13.27Z" style="fill:#ff8a00"/><path d="M90.38,23.77q-.13,0-.51-.33a3.21,3.21,0,0,1-.49-.53,8.55,8.55,0,0,1-1.24.57,2.69,2.69,0,0,1-.89.2,3,3,0,0,1-2.5-1A4.36,4.36,0,0,1,84,19.93a4.21,4.21,0,0,1,1.22-3,3.93,3.93,0,0,1,2.91-1.26,3.76,3.76,0,0,1,1.43.33c.67.27,1,.6,1,1a.5.5,0,0,1-.15.35,4.62,4.62,0,0,0-.11.91c0,.43,0,1,0,1.64a6,6,0,0,0,.13,1.43,8.84,8.84,0,0,0,.46,1.29c0,.09.09.22.16.39l0,.12a.64.64,0,0,1-.21.49A.68.68,0,0,1,90.38,23.77Zm-1.53-5.09c0-.21,0-.44,0-.69s.07-.51.13-.79a3.82,3.82,0,0,0-.47-.2,1.19,1.19,0,0,0-.31-.07,2.53,2.53,0,0,0-2,.93A3.12,3.12,0,0,0,85.46,20a3.15,3.15,0,0,0,.42,1.8,1.46,1.46,0,0,0,1.28.6,2.58,2.58,0,0,0,1.19-.26,4.55,4.55,0,0,0,.74-.56A25.91,25.91,0,0,1,88.85,18.68Z" style="fill:#ff8a00"/><path d="M95.64,23.75a3.61,3.61,0,0,1-2.5-.91,3.26,3.26,0,0,1-1.06-2.52,5.75,5.75,0,0,1,1-3.06,3,3,0,0,1,2.48-1.76,4.43,4.43,0,0,1,1.6.34c.75.28,1.12.63,1.12,1.05a.72.72,0,0,1-.18.49.55.55,0,0,1-.45.22.52.52,0,0,1-.37-.13L97,17.22a2.28,2.28,0,0,0-1.41-.34c-.5,0-1,.44-1.48,1.33a4.52,4.52,0,0,0-.67,2.11,1.89,1.89,0,0,0,.66,1.53,2.4,2.4,0,0,0,1.58.52,2.15,2.15,0,0,0,.94-.24l.85-.45a.8.8,0,0,1,.32-.12.58.58,0,0,1,.46.22.67.67,0,0,1,.2.49c0,.36-.37.7-1.13,1A4.24,4.24,0,0,1,95.64,23.75Z" style="fill:#ff8a00"/><path d="M106.14,23.58a.67.67,0,0,1-.62-.42,13.16,13.16,0,0,0-1.15-1.75l-1.3-1.77c-.28.23-.72.54-1.32.95,0,.75-.08,1.49-.08,2.21a.77.77,0,0,1-.2.54.72.72,0,0,1-.52.2c-.49,0-.74-.33-.74-1,0-.4,0-1,.09-1.82s.08-1.41.08-1.82c0-.74,0-1.59,0-2.54s0-1.8,0-2.53q0-.33,0-.78a7.63,7.63,0,0,1,0-.77.77.77,0,0,1,.2-.54.78.78,0,0,1,1,0,.77.77,0,0,1,.2.54c0,.22,0,.49,0,.79s0,.57,0,.79l0,2.36c0,.85,0,1.7,0,2.55a21.24,21.24,0,0,0,1.92-1.67l1.61-1.66a.7.7,0,0,1,.52-.25.71.71,0,0,1,.51.23.69.69,0,0,1,.24.53.79.79,0,0,1-.22.49,27.18,27.18,0,0,1-2.22,2.26l1.6,2.17a5.17,5.17,0,0,1,1.12,2,.67.67,0,0,1-.23.5A.76.76,0,0,1,106.14,23.58Z" style="fill:#ff8a00"/><path d="M111.25,23.54a6.57,6.57,0,0,1-1.61-.23l0,3.5a.72.72,0,0,1-.2.53.69.69,0,0,1-.51.2.73.73,0,0,1-.52-.2.76.76,0,0,1-.2-.53l0-2.93V21c0-1.06,0-2-.11-2.92L108,16.55a1.82,1.82,0,0,1,.19-.88.7.7,0,0,1,.64-.44.63.63,0,0,1,.48.21.67.67,0,0,1,.19.49,1.36,1.36,0,0,1,0,.24c0,.15,0,.29,0,.42a5.83,5.83,0,0,1,1.22-.65,3.3,3.3,0,0,1,1.12-.21A2.3,2.3,0,0,1,114,17.06a6,6,0,0,1,.55,2.79,4,4,0,0,1-.85,2.61A3,3,0,0,1,111.25,23.54Zm.51-6.35a2.48,2.48,0,0,0-1.22.3,4.81,4.81,0,0,0-1,.78c.06,1.11.09,2.27.09,3.49a4.37,4.37,0,0,0,1.6.31,1.62,1.62,0,0,0,1.4-.68,2.62,2.62,0,0,0,.42-1.54,4.7,4.7,0,0,0-.33-2A1,1,0,0,0,111.76,17.19Z" style="fill:#ff8a00"/><path d="M121.88,23.77q-.13,0-.51-.33a3.21,3.21,0,0,1-.49-.53,8.55,8.55,0,0,1-1.24.57,2.69,2.69,0,0,1-.89.2,3,3,0,0,1-2.5-1,4.36,4.36,0,0,1-.74-2.78,4.21,4.21,0,0,1,1.22-3,3.93,3.93,0,0,1,2.91-1.26,3.72,3.72,0,0,1,1.43.33c.67.27,1,.6,1,1a.5.5,0,0,1-.15.35,5.55,5.55,0,0,0-.11.91c0,.43,0,1,0,1.64a6,6,0,0,0,.13,1.43,8.84,8.84,0,0,0,.46,1.29,4.24,4.24,0,0,0,.17.39l0,.12a.66.66,0,0,1-.2.49A.73.73,0,0,1,121.88,23.77Zm-1.52-5.09a5.76,5.76,0,0,1,0-.69,6.34,6.34,0,0,1,.12-.79,3.26,3.26,0,0,0-.47-.2,1.19,1.19,0,0,0-.31-.07,2.53,2.53,0,0,0-2,.93A3.12,3.12,0,0,0,117,20a3.15,3.15,0,0,0,.42,1.8,1.47,1.47,0,0,0,1.28.6,2.58,2.58,0,0,0,1.19-.26,4.15,4.15,0,0,0,.74-.56A25.36,25.36,0,0,1,120.36,18.68Z" style="fill:#ff8a00"/><path d="M127.14,23.75a3.61,3.61,0,0,1-2.5-.91,3.25,3.25,0,0,1-1-2.52,5.82,5.82,0,0,1,1-3.06,3,3,0,0,1,2.48-1.76,4.43,4.43,0,0,1,1.6.34c.75.28,1.12.63,1.12,1.05a.72.72,0,0,1-.18.49.55.55,0,0,1-.45.22.54.54,0,0,1-.37-.13l-.31-.25a2.28,2.28,0,0,0-1.41-.34c-.5,0-1,.44-1.48,1.33a4.64,4.64,0,0,0-.67,2.11,1.89,1.89,0,0,0,.66,1.53,2.4,2.4,0,0,0,1.58.52,2.15,2.15,0,0,0,.94-.24l.85-.45a.8.8,0,0,1,.32-.12.62.62,0,0,1,.47.22.7.7,0,0,1,.19.49c0,.36-.37.7-1.12,1A4.32,4.32,0,0,1,127.14,23.75Z" style="fill:#ff8a00"/><path d="M137.64,23.58a.67.67,0,0,1-.62-.42,13.16,13.16,0,0,0-1.15-1.75l-1.3-1.77c-.28.23-.72.54-1.32.95-.05.75-.08,1.49-.08,2.21a.72.72,0,0,1-.2.54.69.69,0,0,1-.51.2c-.5,0-.75-.33-.75-1,0-.4,0-1,.09-1.82s.08-1.41.08-1.82c0-.74,0-1.59,0-2.54s0-1.8,0-2.53q0-.33,0-.78a7.63,7.63,0,0,1,0-.77.77.77,0,0,1,.2-.54.78.78,0,0,1,1,0,.77.77,0,0,1,.2.54c0,.22,0,.49,0,.79s0,.57,0,.79l0,2.36c0,.85,0,1.7,0,2.55a21.24,21.24,0,0,0,1.92-1.67l1.61-1.66a.7.7,0,0,1,.52-.25.75.75,0,0,1,.52.23.72.72,0,0,1,.23.53.74.74,0,0,1-.22.49,28.58,28.58,0,0,1-2.21,2.26l1.59,2.17a5.17,5.17,0,0,1,1.12,2,.64.64,0,0,1-.23.5A.76.76,0,0,1,137.64,23.58Z" style="fill:#ff8a00"/><path d="M141.37,20c0,.29,0,.73,0,1.31s0,1,0,1.32a.76.76,0,0,1-.2.53.7.7,0,0,1-.52.2.69.69,0,0,1-.51-.2.72.72,0,0,1-.21-.53c0-.29,0-.73,0-1.32s0-1,0-1.31c0-.46,0-1,.08-1.72s.07-1.26.07-1.72a.74.74,0,0,1,.2-.53.7.7,0,0,1,.52-.21.66.66,0,0,1,.51.21.7.7,0,0,1,.2.53c0,.46,0,1-.07,1.72S141.37,19.5,141.37,20ZM141,14a.82.82,0,0,1-.61-.25.79.79,0,0,1-.26-.6.83.83,0,0,1,.26-.6.86.86,0,0,1,1.21,0,.83.83,0,0,1,.26.6.79.79,0,0,1-.26.6A.82.82,0,0,1,141,14Z" style="fill:#ff8a00"/><path d="M149.46,23.8a.66.66,0,0,1-.71-.68l-.2-1.61a13.18,13.18,0,0,1-.11-1.6c0-.14,0-.37,0-.7s0-.56,0-.69c0-1.06-.2-1.59-.59-1.59a2.06,2.06,0,0,0-1.57,1,6.56,6.56,0,0,0-1.05,2.24c0,.19,0,.43-.07.72a5.74,5.74,0,0,0,0,.71c0,.14,0,.36,0,.66s.05.51.05.66a.71.71,0,0,1-.21.53.66.66,0,0,1-.51.2.66.66,0,0,1-.52-.2.74.74,0,0,1-.2-.53c0-.15,0-.37-.05-.66s-.05-.52-.05-.66c0-.51,0-1.2.11-2.09s.11-1.59.11-2.09c0-.16,0-.39,0-.7s0-.54,0-.7a.66.66,0,0,1,.2-.51.71.71,0,0,1,.52-.2c.45,0,.7.31.74.95l0,.85a3.34,3.34,0,0,1,2.53-1.64,1.65,1.65,0,0,1,1.63,1,5.33,5.33,0,0,1,.35,2v1.42a9.53,9.53,0,0,0,.16,1.57,10.79,10.79,0,0,1,.15,1.57.69.69,0,0,1-.73.72Z" style="fill:#ff8a00"/><path d="M157.72,20.13l-.17,2.46a9.5,9.5,0,0,1-.3,2.39,3.17,3.17,0,0,1-1.05,1.75,4,4,0,0,1-2.54.69,8.17,8.17,0,0,1-1.63-.14c-.62-.12-.93-.37-.93-.76a.57.57,0,0,1,.64-.65,4.57,4.57,0,0,1,.88.13,6.41,6.41,0,0,0,1.36.11,2,2,0,0,0,1.94-1.36,8,8,0,0,0,.37-2.75,2.87,2.87,0,0,1-.94,1.1,2.21,2.21,0,0,1-1.24.37,2.77,2.77,0,0,1-2.16-.91,3.29,3.29,0,0,1-.83-2.34A4.49,4.49,0,0,1,152.25,17a4.19,4.19,0,0,1,3.2-1.25,3.17,3.17,0,0,1,1.14.18,1.41,1.41,0,0,1,.7.53c.52,0,.79.3.79.87a8.8,8.8,0,0,1-.16,1.39C157.81,19.42,157.74,19.88,157.72,20.13ZM155.37,17a2.58,2.58,0,0,0-2.15,1,3.43,3.43,0,0,0-.68,2.19,2.64,2.64,0,0,0,.4,1.6,1.41,1.41,0,0,0,1.21.53,1.9,1.9,0,0,0,1.43-.83,3,3,0,0,0,.72-1.52q.16-.8.33-2.49a2,2,0,0,0-.61-.33A1.78,1.78,0,0,0,155.37,17Z" style="fill:#ff8a00"/><path d="M172.28,23.5c-.45,0-.84-.57-1.17-1.73a22.49,22.49,0,0,1-.48-2.3c-.5.07-1.15.19-2,.36l-1.94.41c-.25.64-.67,1.57-1.26,2.8a.69.69,0,0,1-.63.41.77.77,0,0,1-.53-.21.7.7,0,0,1-.23-.53A13.43,13.43,0,0,1,165.19,20a.74.74,0,0,1-.13-.44c0-.4.24-.65.72-.76.56-1.05,1.26-2.25,2.11-3.61,1.16-1.85,1.88-2.77,2.16-2.77s.65.27.79.8l.46,2.47,1.09,5.09.42,1.15a3.14,3.14,0,0,1,.21.79.69.69,0,0,1-.22.53A.75.75,0,0,1,172.28,23.5Zm-2.59-8.37-2.09,3.38c.59-.15,1.48-.34,2.69-.55Z" style="fill:#ff8a00"/><path d="M178.22,23.54a6.63,6.63,0,0,1-1.61-.23v3.5a.76.76,0,0,1-.2.53.78.78,0,0,1-1,0,.76.76,0,0,1-.2-.53l0-2.93V21c0-1.06-.05-2-.11-2.92L175,16.55a1.82,1.82,0,0,1,.2-.88.68.68,0,0,1,.63-.44.63.63,0,0,1,.48.21.68.68,0,0,1,.2.49,1.84,1.84,0,0,1,0,.24c0,.15,0,.29-.05.42a5.83,5.83,0,0,1,1.22-.65,3.3,3.3,0,0,1,1.12-.21,2.32,2.32,0,0,1,2.2,1.33,6.12,6.12,0,0,1,.55,2.79,4,4,0,0,1-.85,2.61A3,3,0,0,1,178.22,23.54Zm.51-6.35a2.48,2.48,0,0,0-1.22.3,5.09,5.09,0,0,0-1,.78c.06,1.11.1,2.27.1,3.49a4.28,4.28,0,0,0,1.59.31,1.62,1.62,0,0,0,1.4-.68,2.62,2.62,0,0,0,.42-1.54,4.7,4.7,0,0,0-.33-2A1,1,0,0,0,178.73,17.19Z" style="fill:#ff8a00"/><path d="M186.24,23.54a6.63,6.63,0,0,1-1.61-.23v3.5a.76.76,0,0,1-.2.53.78.78,0,0,1-1,0,.76.76,0,0,1-.2-.53l0-2.93V21c0-1.06-.06-2-.12-2.92L183,16.55a1.82,1.82,0,0,1,.2-.88.68.68,0,0,1,.63-.44.63.63,0,0,1,.48.21.68.68,0,0,1,.2.49,1.84,1.84,0,0,1,0,.24c0,.15,0,.29-.05.42a5.83,5.83,0,0,1,1.22-.65,3.3,3.3,0,0,1,1.12-.21,2.32,2.32,0,0,1,2.2,1.33,6.12,6.12,0,0,1,.55,2.79,4,4,0,0,1-.85,2.61A3,3,0,0,1,186.24,23.54Zm.51-6.35a2.48,2.48,0,0,0-1.22.3,5.09,5.09,0,0,0-1,.78c.07,1.11.1,2.27.1,3.49a4.28,4.28,0,0,0,1.59.31,1.62,1.62,0,0,0,1.4-.68,2.62,2.62,0,0,0,.42-1.54,4.7,4.7,0,0,0-.33-2A1,1,0,0,0,186.75,17.19Z" style="fill:#ff8a00"/></svg>